<?xml version="1.0" encoding="UTF-8"?>
<svg width="116px" height="212px" viewBox="0 0 116 212" version="1.1" xmlns="http://www.w3.org/2000/svg" xmlns:xlink="http://www.w3.org/1999/xlink">
    <!-- Generator: Sketch 45.1 (43504) - http://www.bohemiancoding.com/sketch -->
    <title>3</title>
    <desc>Created with Sketch.</desc>
    <defs></defs>
    <g id="Page-1" stroke="none" stroke-width="1" fill="none" fill-rule="evenodd">
        <g id="Hello" transform="translate(-1057.000000, -2040.000000)" fill="#FFFFFF">
            <path d="M1172.92,2194.432 C1172.92,2201.92004 1171.76801,2209.07197 1169.464,2215.888 C1167.15999,2222.70403 1163.65602,2228.75197 1158.952,2234.032 C1154.24798,2239.31203 1148.20004,2243.53598 1140.808,2246.704 C1133.41596,2249.87202 1124.63205,2251.456 1114.456,2251.456 C1101.39993,2251.456 1089.83205,2248.48003 1079.752,2242.528 C1069.67195,2236.57597 1062.13602,2228.70405 1057.144,2218.912 L1063.192,2216.32 C1067.41602,2225.15204 1074.13595,2232.15997 1083.352,2237.344 C1092.56805,2242.52803 1102.93594,2245.312 1114.456,2245.696 C1122.90404,2245.888 1130.39197,2244.64001 1136.92,2241.952 C1143.44803,2239.26399 1148.91998,2235.56802 1153.336,2230.864 C1157.75202,2226.15998 1161.06399,2220.64003 1163.272,2214.304 C1165.48001,2207.96797 1166.584,2201.24804 1166.584,2194.144 C1166.584,2185.31196 1164.71202,2177.72803 1160.968,2171.392 C1157.22398,2165.05597 1152.47203,2159.82402 1146.712,2155.696 C1140.95197,2151.56798 1134.61603,2148.54401 1127.704,2146.624 C1120.79197,2144.70399 1114.26403,2143.744 1108.12,2143.744 L1101.784,2143.744 L1101.784,2137.984 L1108.12,2137.984 C1114.26403,2137.984 1120.35997,2137.07201 1126.408,2135.248 C1132.45603,2133.42399 1137.92798,2130.59202 1142.824,2126.752 C1147.72002,2122.91198 1151.70398,2118.01603 1154.776,2112.064 C1157.84802,2106.11197 1159.384,2098.91204 1159.384,2090.464 C1159.384,2083.74397 1158.23201,2077.64803 1155.928,2072.176 C1153.62399,2066.70397 1150.45602,2062.04802 1146.424,2058.208 C1142.39198,2054.36798 1137.64003,2051.39201 1132.168,2049.28 C1126.69597,2047.16799 1120.79203,2046.112 1114.456,2046.112 C1106.00796,2046.112 1097.94404,2047.93598 1090.264,2051.584 C1082.58396,2055.23202 1076.53602,2060.41597 1072.12,2067.136 L1066.936,2063.68 C1071.92802,2056.57596 1078.50396,2050.96002 1086.664,2046.832 C1094.82404,2042.70398 1104.08795,2040.64 1114.456,2040.64 C1121.75204,2040.64 1128.51997,2041.79199 1134.76,2044.096 C1141.00003,2046.40001 1146.37598,2049.71198 1150.888,2054.032 C1155.40002,2058.35202 1158.95199,2063.58397 1161.544,2069.728 C1164.13601,2075.87203 1165.432,2082.78396 1165.432,2090.464 C1165.432,2096.22403 1164.61601,2101.83997 1162.984,2107.312 C1161.35199,2112.78403 1158.80802,2117.72798 1155.352,2122.144 C1151.89598,2126.56002 1147.43203,2130.39998 1141.96,2133.664 C1136.48797,2136.92802 1130.00804,2139.13599 1122.52,2140.288 L1122.52,2140.864 C1131.16004,2142.20801 1138.64797,2144.60798 1144.984,2148.064 C1151.32003,2151.52002 1156.55198,2155.64798 1160.68,2160.448 C1164.80802,2165.24802 1167.87999,2170.57597 1169.896,2176.432 C1171.91201,2182.28803 1172.92,2188.28797 1172.92,2194.432 Z" id="3"></path>
        </g>
    </g>
</svg>