<?xml version="1.0" encoding="UTF-8"?>
<svg width="172px" height="204px" viewBox="0 0 172 204" version="1.1" xmlns="http://www.w3.org/2000/svg" xmlns:xlink="http://www.w3.org/1999/xlink">
    <!-- Generator: Sketch 45.1 (43504) - http://www.bohemiancoding.com/sketch -->
    <title>D</title>
    <desc>Created with Sketch.</desc>
    <defs></defs>
    <g id="Page-1" stroke="none" stroke-width="1" fill="none" fill-rule="evenodd">
        <g id="Hello" transform="translate(-611.000000, -2044.000000)" fill="#FFFFFF">
            <path d="M782.024,2146.048 C782.024,2163.71209 779.144029,2178.92794 773.384,2191.696 C767.623971,2204.46406 759.656051,2215.02396 749.48,2223.376 C739.303949,2231.72804 727.352069,2237.91998 713.624,2241.952 C699.895931,2245.98402 685.160079,2248 669.416,2248 L611.528,2248 L611.528,2044.096 L669.416,2044.096 C685.160079,2044.096 699.895931,2046.06398 713.624,2050 C727.352069,2053.93602 739.303949,2060.07996 749.48,2068.432 C759.656051,2076.78404 767.623971,2087.39194 773.384,2100.256 C779.144029,2113.12006 782.024,2128.38391 782.024,2146.048 Z M618.152,2049.856 L618.152,2242.24 L667.976,2242.24 C682.952075,2242.24 697.015934,2240.36802 710.168,2236.624 C723.320066,2232.87998 734.695952,2227.12004 744.296,2219.344 C753.896048,2211.56796 761.479972,2201.63206 767.048,2189.536 C772.616028,2177.43994 775.4,2162.94408 775.4,2146.048 C775.4,2129.15192 772.616028,2114.60806 767.048,2102.416 C761.479972,2090.22394 753.896048,2080.24004 744.296,2072.464 C734.695952,2064.68796 723.320066,2058.97602 710.168,2055.328 C697.015934,2051.67998 682.952075,2049.856 667.976,2049.856 L618.152,2049.856 Z" id="D"></path>
        </g>
    </g>
</svg>